<?xml version="1.0" standalone="no"?>
<!DOCTYPE svg PUBLIC "-//W3C//DTD SVG 20010904//EN"
 "http://www.w3.org/TR/2001/REC-SVG-20010904/DTD/svg10.dtd">
<svg version="1.0" xmlns="http://www.w3.org/2000/svg"
 width="64.000000pt" height="64.000000pt" viewBox="0 0 64.000000 64.000000"
 preserveAspectRatio="xMidYMid meet">

<g transform="translate(0.000000,64.000000) scale(0.100000,-0.100000)"
fill="#000000" stroke="none">
<path d="M76 594 c-3 -9 -6 -27 -6 -40 0 -18 -5 -24 -23 -24 -45 0 -47 -11
-47 -246 0 -122 3 -229 6 -238 5 -14 25 -16 133 -14 122 2 123 2 26 5 -161 5
-145 -16 -145 188 l0 175 255 0 255 0 0 -80 c0 -94 18 -108 22 -17 3 62 3 62
37 -92 35 -163 34 -175 -14 -169 -18 3 -20 12 -23 85 -4 106 -22 109 -22 3 0
-94 8 -88 -145 -93 -64 -2 -41 -4 66 -5 136 -2 169 1 179 13 9 11 2 60 -36
237 -26 123 -51 229 -57 236 -5 6 -22 12 -38 12 -27 0 -29 3 -29 40 0 39 -1
40 -34 40 -36 0 -46 -12 -46 -56 0 -21 -4 -24 -40 -24 l-40 0 0 40 c0 39 -1
40 -34 40 -36 0 -46 -12 -46 -56 0 -21 -4 -24 -40 -24 l-40 0 0 40 c0 39 -1
40 -34 40 -22 0 -36 -6 -40 -16z m54 -60 c0 -47 -3 -55 -17 -52 -14 2 -19 15
-21 56 -3 47 -1 52 17 52 19 0 21 -6 21 -56z m160 0 c0 -47 -3 -55 -17 -52
-14 2 -19 15 -21 56 -3 47 -1 52 17 52 19 0 21 -6 21 -56z m160 1 c0 -42 -3
-55 -15 -55 -12 0 -15 13 -15 55 0 42 3 55 15 55 12 0 15 -13 15 -55z"/>
<path d="M247 352 c-37 -5 -97 -65 -98 -100 -4 -96 45 -152 131 -152 36 0 48
6 82 39 37 38 39 43 37 95 -1 31 0 59 4 62 14 14 -14 44 -41 43 -15 -1 -40 3
-57 8 -16 5 -43 7 -58 5z m77 -30 c3 -5 -5 -21 -18 -36 -19 -25 -25 -27 -43
-17 -51 27 -74 -16 -38 -71 35 -52 59 -50 112 9 l42 48 1 -33 c0 -46 -54 -102
-100 -102 -65 0 -109 43 -110 107 0 60 44 103 105 103 24 0 46 -4 49 -8z m56
-15 c0 -14 -86 -119 -101 -125 -11 -5 -48 38 -49 56 0 17 21 15 35 -4 10 -15
17 -10 55 35 44 51 60 62 60 38z"/>
</g>
</svg>
